Coordinates
version=1
nRows=5
nColumns=63
inDegrees=yes

Units are S.I. units (second, meters, Newtons, ...)
If the header above contains a line with 'inDegrees', this indicates whether rotational values are in degrees (yes) or radians (no).

endheader
time	pelvis_tilt	pelvis_list	pelvis_rotation	pelvis_tx	pelvis_ty	pelvis_tz	hip_flexion_r	hip_adduction_r	hip_rotation_r	knee_angle_r	knee_angle_r_beta	ankle_angle_r	subtalar_angle_r	mtp_angle_r	hip_flexion_l	hip_adduction_l	hip_rotation_l	knee_angle_l	knee_angle_l_beta	ankle_angle_l	subtalar_angle_l	mtp_angle_l	L5_S1_Flex_Ext	L5_S1_Lat_Bending	L5_S1_axial_rotation	L4_L5_Flex_Ext	L4_L5_Lat_Bending	L4_L5_axial_rotation	L3_L4_Flex_Ext	L3_L4_Lat_Bending	L3_L4_axial_rotation	L2_L3_Flex_Ext	L2_L3_Lat_Bending	L2_L3_axial_rotation	L1_L2_Flex_Ext	L1_L2_Lat_Bending	L1_L2_axial_rotation	L1_T12_Flex_Ext	L1_T12_Lat_Bending	L1_T12_axial_rotation	Abs_r3	Abs_r2	Abs_r1	Abs_t1	Abs_t2	neck_flexion	neck_bending	neck_rotation	arm_flex_r	arm_add_r	arm_rot_r	elbow_flex_r	pro_sup_r	wrist_flex_r	wrist_dev_r	arm_flex_l	arm_add_l	arm_rot_l	elbow_flex_l	pro_sup_l	wrist_flex_l	wrist_dev_l
      9.56666667	      1.04450131	      2.66729679	    -88.41035404	      2.43509200	      0.89051442	      1.00667640	     -0.92307878	      6.25809535	     39.93421510	      0.29913071	      0.00522082	   -191.57055168	    -19.90068693	      0.00000000	     14.16673656	      4.02582015	    -39.92286824	      0.18327071	      0.00319868	   -150.02542792	     19.88487164	      0.00000000	     -0.01096805	      0.05426221	    -17.20905783	     -0.02036877	      0.07216874	    -18.28462395	     -0.01801942	      0.13193315	    -18.28462395	     -0.01253539	      0.13193315	    -15.05792560	     -0.01018494	      0.11065151	    -13.98235949	     -0.00626715	      0.08405217	    -12.90679337	     -0.07834371	      0.61382501	    -95.71161694	      0.00000000	      0.00000000	     -0.00000000	      0.00000000	     -0.00000000	    -12.18762580	      4.60351461	    -28.01595589	     29.34377079	     47.50645580	      0.00000000	      5.00000014	    -14.58352925	     -9.59594834	     18.84563829	     22.29997929	     54.20389903	      0.00000000	      5.00000014
      9.60000000	      1.03010951	      2.69135447	    -88.38168514	      2.43463277	      0.89022405	      1.00654682	     -0.89921469	      6.33688588	     39.93422388	      0.31380476	      0.00547693	   -191.56310781	    -19.90030740	      0.00000000	     14.22158869	      3.95775660	    -39.92310082	      0.18580516	      0.00324291	   -150.01289676	     19.88537564	      0.00000000	     -0.00881972	      0.05055578	    -17.21364337	     -0.01637910	      0.06723919	    -18.28949608	     -0.01448991	      0.12292132	    -18.28949608	     -0.01008005	      0.12292132	    -15.06193795	     -0.00818999	      0.10309334	    -13.98608524	     -0.00503959	      0.07831090	    -12.91023253	     -0.06299836	      0.57189708	    -95.73712034	      0.00000000	      0.00000000	     -0.00000000	      0.00000000	     -0.00000000	    -12.27117937	      4.69683030	    -28.01275487	     29.36519504	     47.50666983	      0.00000000	      5.00000014	    -14.58492549	     -9.61499837	     18.84707594	     22.31246967	     54.20592131	      0.00000000	      5.00000014
      9.63333333	      0.98266475	      2.72430772	    -88.34642425	      2.43401667	      0.88988028	      1.00621423	     -0.85356249	      6.44510072	     39.93420067	      0.31961645	      0.00557836	   -191.59540867	    -19.89934444	      0.00000000	     14.31166865	      3.86437982	    -39.92303903	      0.19883801	      0.00347038	   -150.01442601	     19.88517948	      0.00000000	     -0.00933948	      0.04630262	    -17.21919341	     -0.01734435	      0.06158248	    -18.29539300	     -0.01534383	      0.11258018	    -18.29539300	     -0.01067409	      0.11258018	    -15.06679424	     -0.00867264	      0.09442030	    -13.99059465	     -0.00533658	      0.07172275	    -12.91439506	     -0.06671098	      0.52378446	    -95.76798801	      0.00000000	      0.00000000	     -0.00000000	      0.00000000	     -0.00000000	    -12.38441223	      4.79808088	    -28.01849307	     29.41650016	     47.50488334	      0.00000000	      5.00000014	    -14.59758482	     -9.65792346	     18.84939521	     22.33456028	     54.20817167	      0.00000000	      5.00000014
      9.66666667	      0.47056863	      3.22113550	    -88.48631666	      2.43357212	      0.88872601	      1.00577713	     -0.27820581	      6.99314835	     39.93417345	      0.32797068	      0.00572417	   -191.91339149	    -19.90042927	      0.00000000	     14.94595349	      3.30257237	    -39.92299161	      0.21639657	      0.00377683	   -150.59123779	     19.88515551	      0.00000000	     -0.01487424	      0.14023587	    -17.17910057	     -0.02762294	      0.18651371	    -18.25279435	     -0.02443688	      0.34096949	    -18.25279435	     -0.01699976	      0.34096949	    -15.03171300	     -0.01381222	      0.28596899	    -13.95801921	     -0.00849914	      0.21722536	    -12.88432542	     -0.10624518	      1.58637620	    -95.54500362	      0.00000000	      0.00000000	     -0.00000000	      0.00000000	     -0.00000000	    -12.56161073	      5.11921594	    -29.45555084	     30.52687442	     47.28141185	      0.00000000	      5.00000014	    -14.39333893	     -9.63123003	     19.35427608	     22.61258637	     54.40442273	      0.00000000	      5.00000014
      9.70000000	      0.43726524	      3.24872736	    -88.51079138	      2.43308566	      0.88844547	      1.00541688	     -0.22149334	      7.05896519	     39.93418954	      0.35435010	      0.00618458	   -191.95048335	    -19.89920297	      0.00000000	     15.02488009	      3.25451349	    -39.92286450	      0.22634495	      0.00395046	   -150.55392698	     19.88446307	      0.00000000	     -0.01557362	      0.13454861	    -17.18646644	     -0.02892177	      0.17894965	    -18.26062059	     -0.02558590	      0.32714149	    -18.26062059	     -0.01779909	      0.32714149	    -15.03815813	     -0.01446166	      0.27437153	    -13.96400398	     -0.00889877	      0.20841580	    -12.88984983	     -0.11124082	      1.52204080	    -95.58597038	      0.00000000	      0.00000000	     -0.00000000	      0.00000000	     -0.00000000	    -12.58282341	      5.20661070	    -29.44618654	     30.51443874	     47.28276115	      0.00000000	      5.00000014	    -14.41268724	     -9.66360273	     19.35811514	     22.60606602	     54.40602385	      0.00000000	      5.00000014
